Fungal-Grow 700 Thickness 1000.ufo
<glyph name="C" format="1">
  <advance width="1430"/>
  <unicode hex="0043"/>
  <outline>
    <contour>
      <point x="1319" y="1378" type="curve"/>
      <point x="1319" y="1378" type="line"/>
      <point x="1319" y="1165" type="line"/>
      <point x="1183" y="1291.667"/>
      <point x="1029.333" y="1354"/>
      <point x="856" y="1354" type="curve" smooth="yes"/>
      <point x="514.667" y="1354"/>
      <point x="328" y="1139.667"/>
      <point x="328" y="745" type="curve" smooth="yes"/>
      <point x="328" y="351.667"/>
      <point x="514.667" y="137"/>
      <point x="856" y="137" type="curve" smooth="yes"/>
      <point x="1029.333" y="137"/>
      <point x="1183" y="199.333"/>
      <point x="1319" y="326" type="curve"/>
      <point x="1319" y="115" type="line"/>
      <point x="1177.667" y="19"/>
      <point x="1020" y="-29"/>
      <point x="844" y="-29" type="curve" smooth="yes"/>
      <point x="392" y="-29"/>
      <point x="115" y="266.333"/>
      <point x="115" y="745" type="curve" smooth="yes"/>
      <point x="115" y="1225"/>
      <point x="392" y="1520"/>
      <point x="844" y="1520" type="curve" smooth="yes"/>
      <point x="1022.667" y="1520"/>
      <point x="1180.333" y="1472.667"/>
    </contour>
    <component base="blob1" xScale="0" xyScale="1.2886" yScale="0" yxScale="1.2886" xOffset="1332" yOffset="1275"/>
    <component base="blob2" xScale="0" xyScale="1" yScale="0" yxScale="1" xOffset="1859" yOffset="1230"/>
    <component base="blob3" xScale="0" xyScale="1" yScale="0" yxScale="1" xOffset="2255" yOffset="1057"/>
    <component base="blob4" xScale="0" xyScale="0.8783" yScale="0" yxScale="0.8783" xOffset="2677" yOffset="1203"/>
    <component base="blob5" xScale="0" xyScale="1" yScale="0" yxScale="1" xOffset="2835" yOffset="1590"/>
    <component base="blob6" xScale="0" xyScale="1.1539" yScale="0" yxScale="1.1539" xOffset="2636" yOffset="2108"/>
    <component base="blob7" xScale="0" xyScale="0.9753" yScale="0" yxScale="0.9753" xOffset="2130" yOffset="2269"/>
    <component base="blob8" xScale="0" xyScale="0.7047" yScale="0" yxScale="0.7047" xOffset="1768" yOffset="2249"/>
    <component base="blob9" xScale="0" xyScale="0.4869" yScale="0" yxScale="0.4869" xOffset="1522" yOffset="2423"/>
    <component base="blob2" xScale="0" xyScale="1" yScale="0" yxScale="1" xOffset="823" yOffset="1160"/>
    <component base="blob3" xScale="0" xyScale="1" yScale="0" yxScale="1" xOffset="455" yOffset="989"/>
    <component base="blob4" xScale="0" xyScale="0.8783" yScale="0" yxScale="0.8783" xOffset="415" yOffset="580"/>
    <component base="blob5" xScale="0" xyScale="1" yScale="0" yxScale="1" xOffset="557" yOffset="220"/>
    <component base="blob5" xScale="0" xyScale="1" yScale="0" yxScale="1" xOffset="956" yOffset="74"/>
    <component base="blob6" xScale="0" xyScale="0.9034" yScale="0" yxScale="0.9034" xOffset="1267" yOffset="-235"/>
    <component base="blob7" xScale="0" xyScale="0.6593" yScale="0" yxScale="0.6593" xOffset="1448" yOffset="-524"/>
    <contour>
      <point x="844" y="1520" type="move" name="above"/>
    </contour>
    <contour>
      <point x="844" y="0" type="move" name="below"/>
    </contour>
    <contour>
      <point x="844" y="0" type="move" name="cedilla"/>
    </contour>
    <contour>
      <point x="0" y="1520" type="move" name="half"/>
    </contour>
  </outline>
</glyph>
<glyph name="i" format="1">
  <advance width="569"/>
  <unicode hex="0069"/>
  <outline>
    <contour>
      <point x="193" y="1120" type="line"/>
      <point x="377" y="1120" type="line"/>
      <point x="377" y="0" type="line"/>
      <point x="193" y="0" type="line"/>
      <point x="193" y="1120" type="line"/>
    </contour>
    <contour>
      <point x="193" y="1556" type="line"/>
      <point x="377" y="1556" type="line"/>
      <point x="377" y="1323" type="line"/>
      <point x="193" y="1323" type="line"/>
      <point x="193" y="1556" type="line"/>
    </contour>
    <component base="blob1" xScale="1.2886" yScale="1.2886" xOffset="271" yOffset="1735"/>
    <component base="blob2" xOffset="183" yOffset="1977"/>
    <component base="blob3" xOffset="324" yOffset="2204"/>
    <component base="blob4" xScale="0.6152" yScale="0.6152" xOffset="563" yOffset="2346"/>
    <component base="blob5" xOffset="723" yOffset="2509"/>
    <component base="blob6" xScale="1.1539" yScale="1.1539" xOffset="823" yOffset="2874"/>
    <component base="blob7" xScale="0.9167" yScale="0.9167" xOffset="785" yOffset="3189"/>
    <component base="blob8" xScale="0.7047" yScale="0.7047" xOffset="582" yOffset="3374"/>
    <component base="blob9" xScale="0.4869" yScale="0.4869" xOffset="589" yOffset="3580"/>
    <component base="blob1" xScale="0.7049" yScale="0.7049" xOffset="383" yOffset="1311"/>
    <component base="blob2" xScale="0.5766" yScale="0.5766" xOffset="420" yOffset="1143"/>
    <component base="blob3" xScale="0.7281" yScale="0.7281" xOffset="530" yOffset="985"/>
    <component base="blob4" xScale="0.6152" yScale="0.6152" xOffset="417" yOffset="825"/>
    <component base="blob5" xScale="0.6944" yScale="0.6944" xOffset="339" yOffset="665"/>
    <contour>
      <point x="287" y="1583" type="move" name="above"/>
    </contour>
    <contour>
      <point x="287" y="0" type="move" name="below"/>
    </contour>
    <contour>
      <point x="287" y="0" type="move" name="cedilla"/>
    </contour>
    <contour>
      <point x="0" y="1520" type="move" name="half"/>
    </contour>
    <contour>
      <point x="318" y="0" type="move" name="ogonek"/>
    </contour>
  </outline>
</glyph>
<glyph name="uni0209" format="1">
  <advance width="569"/>
  <unicode hex="0209"/>
  <outline>
    <component base="uni030F" xOffset="870" yOffset="-3"/>
    <component base="dotlessi"/>
    <contour>
      <point x="287" y="0" type="move" name="below"/>
    </contour>
    <contour>
      <point x="287" y="0" type="move" name="cedilla"/>
    </contour>
  </outline>
</glyph>
<glyph name="uni0324" format="1">
  <advance width="0"/>
  <unicode hex="0324"/>
  <outline>
    <component base="dieresis" xOffset="-1026" yOffset="-1725"/>
    <contour>
      <point x="-512" y="-1" type="move" name="_Ligature below"/>
    </contour>
    <contour>
      <point x="-512" y="-1" type="move" name="_below"/>
    </contour>
    <contour>
      <point x="-512" y="0" type="move" name="_below-mark"/>
    </contour>
    <contour>
      <point x="-512" y="-375" type="move" name="below-mark"/>
    </contour>
  </outline>
</glyph>
<glyph name="uni05B0" format="1">
  <advance width="0"/>
  <unicode hex="05B0"/>
  <outline>
    <contour>
      <point x="580" y="-45" type="line"/>
      <point x="730" y="-45" type="line"/>
      <point x="730" y="-195" type="line"/>
      <point x="580" y="-195" type="line"/>
    </contour>
    <contour>
      <point x="580" y="-295" type="line"/>
      <point x="730" y="-295" type="line"/>
      <point x="730" y="-445" type="line"/>
      <point x="580" y="-445" type="line"/>
    </contour>
    <contour>
      <point x="655" y="0" type="move" name="_Ligature rtl-below"/>
    </contour>
    <contour>
      <point x="655" y="0" type="move" name="_rtl-below"/>
    </contour>
    <contour>
      <point x="655" y="0" type="move" name="_rtl-below-mark"/>
    </contour>
  </outline>
</glyph>
<glyph name="uni065A" format="1">
  <advance width="1024"/>
  <unicode hex="065A"/>
  <outline>
    <contour>
      <point x="438" y="1262" type="line"/>
      <point x="243" y="1588" type="line"/>
      <point x="382" y="1588" type="line"/>
      <point x="512" y="1393" type="line"/>
      <point x="642" y="1588" type="line"/>
      <point x="781" y="1588" type="line"/>
      <point x="586" y="1262" type="line"/>
    </contour>
    <contour>
      <point x="512" y="1200" type="move" name="_Ligature rtl-above"/>
    </contour>
    <contour>
      <point x="512" y="1200" type="move" name="_rtl-above"/>
    </contour>
    <contour>
      <point x="512" y="1200" type="move" name="_rtl-above-mark"/>
    </contour>
    <contour>
      <point x="510" y="1650" type="move" name="rtl-above-mark"/>
    </contour>
  </outline>
</glyph>
<glyph name="uni0680" format="1">
  <advance width="1928"/>
  <unicode hex="0680"/>
  <outline>
    <component base="uni066E"/>
    <component base="arabic_4dots" xOffset="700" yOffset="-250"/>
    <contour>
      <point x="900" y="1000" type="move" name="rtl-above"/>
    </contour>
    <contour>
      <point x="900" y="-600" type="move" name="rtl-below"/>
    </contour>
  </outline>
</glyph>
<glyph name="uni06A7" format="1">
  <advance width="1589"/>
  <unicode hex="06A7"/>
  <outline>
    <component base="uni066F"/>
    <component base="arabic_dot" xOffset="975" yOffset="1150"/>
    <contour>
      <point x="500" y="1100" type="move" name="rtl-above"/>
    </contour>
    <contour>
      <point x="700" y="-550" type="move" name="rtl-below"/>
    </contour>
  </outline>
</glyph>
<glyph name="uni06CE" format="1">
  <advance width="1603"/>
  <unicode hex="06CE"/>
  <outline>
    <component base="uni0649"/>
    <component base="uni065A" xOffset="-12" yOffset="-450"/>
    <contour>
      <point x="500" y="1250" type="move" name="rtl-above"/>
    </contour>
    <contour>
      <point x="700" y="-400" type="move" name="rtl-below"/>
    </contour>
  </outline>
</glyph>
<glyph name="uni07CD" format="1">
  <advance width="1212"/>
  <unicode hex="07CD"/>
  <outline>
    <contour>
      <point x="61" y="0" type="line"/>
      <point x="481" y="881" type="line"/>
      <point x="731" y="881" type="line"/>
      <point x="1151" y="0" type="line"/>
      <point x="956" y="0" type="line"/>
      <point x="606" y="701" type="line"/>
      <point x="256" y="0" type="line"/>
    </contour>
    <contour>
      <point x="606" y="1520" type="move" name="rtl-above"/>
    </contour>
    <contour>
      <point x="606" y="0" type="move" name="rtl-below"/>
    </contour>
  </outline>
</glyph>
<glyph name="uni1D0F" format="1">
  <advance width="1253"/>
  <unicode hex="1D0F"/>
  <outline>
    <component base="o"/>
    <contour>
      <point x="637" y="1147" type="move" name="above"/>
    </contour>
    <contour>
      <point x="637" y="0" type="move" name="below"/>
    </contour>
  </outline>
</glyph>
<glyph name="uniA782" format="1">
  <advance width="1506"/>
  <unicode hex="A782"/>
  <outline>
    <contour>
      <point x="1305" y="893" type="qcurve" smooth="yes"/>
      <point x="1305" y="514" type="line" smooth="yes"/>
      <point x="1305" y="320"/>
      <point x="1416" y="170"/>
      <point x="1550" y="170" type="qcurve"/>
      <point x="1550" y="0" type="line"/>
      <point x="1309" y="0"/>
      <point x="1104" y="244"/>
      <point x="1104" y="514" type="qcurve" smooth="yes"/>
      <point x="1104" y="895" type="line" smooth="yes"/>
      <point x="1104" y="1110"/>
      <point x="950" y="1323"/>
      <point x="797" y="1323" type="qcurve" smooth="yes"/>
      <point x="618" y="1323"/>
      <point x="403" y="1068"/>
      <point x="403" y="846" type="qcurve" smooth="yes"/>
      <point x="403" y="-426" type="line"/>
      <point x="201" y="-426" type="line"/>
      <point x="201" y="1493" type="line"/>
      <point x="403" y="1493" type="line"/>
      <point x="403" y="1252" type="line"/>
      <point x="484" y="1387"/>
      <point x="586" y="1454" type="qcurve" smooth="yes"/>
      <point x="687" y="1520"/>
      <point x="845" y="1520" type="qcurve" smooth="yes"/>
      <point x="1072" y="1520"/>
      <point x="1305" y="1201"/>
    </contour>
    <contour>
      <point x="752" y="1520" type="move" name="above"/>
    </contour>
    <contour>
      <point x="781" y="-430" type="move" name="below"/>
    </contour>
    <contour>
      <point x="0" y="1520" type="move" name="half"/>
    </contour>
  </outline>
</glyph>
<glyph name="uniFB56" format="1">
  <advance width="1928"/>
  <unicode hex="FB56"/>
  <outline>
    <component base="arabic_3dots_a" xOffset="700" yOffset="-250"/>
    <component base="uni066E"/>
    <contour>
      <point x="900" y="1000" type="move" name="rtl-above"/>
    </contour>
    <contour>
      <point x="900" y="-600" type="move" name="rtl-below"/>
    </contour>
  </outline>
</glyph>
<glyph name="uniFB5C" format="1">
  <advance width="570"/>
  <unicode hex="FB5C"/>
  <outline>
    <component base="uni066E.init"/>
    <component base="arabic_4dots" xOffset="99" yOffset="-250"/>
    <contour>
      <point x="299" y="1000" type="move" name="rtl-above"/>
    </contour>
    <contour>
      <point x="299" y="-550" type="move" name="rtl-below"/>
    </contour>
  </outline>
</glyph>
<glyph name="uniFB60" format="1">
  <advance width="570"/>
  <unicode hex="FB60"/>
  <outline>
    <component base="uni066E.init"/>
    <component base="arabic_2dots_a" xOffset="224" yOffset="1100"/>
    <contour>
      <point x="299" y="1300" type="move" name="rtl-above"/>
    </contour>
    <contour>
      <point x="299" y="-100" type="move" name="rtl-below"/>
    </contour>
  </outline>
</glyph>
<glyph name="uniFB74" format="1">
  <advance width="1266"/>
  <unicode hex="FB74"/>
  <outline>
    <component base="uniFEA3"/>
    <component base="arabic_2dots_a" xOffset="525" yOffset="-200"/>
    <contour>
      <point x="600" y="1000" type="move" name="rtl-above"/>
    </contour>
    <contour>
      <point x="600" y="-500" type="move" name="rtl-below"/>
    </contour>
  </outline>
</glyph>
<glyph name="uniFB9E" format="1">
  <advance width="1504"/>
  <unicode hex="FB9E"/>
  <outline>
    <component base="uni06BA"/>
    <contour>
      <point x="650" y="750" type="move" name="rtl-above"/>
    </contour>
    <contour>
      <point x="750" y="-450" type="move" name="rtl-below"/>
    </contour>
  </outline>
</glyph>
<glyph name="uniFBE5" format="1">
  <advance width="1707"/>
  <unicode hex="FBE5"/>
  <outline>
    <component base="arabic_2dots_a" xOffset="650" yOffset="-520"/>
    <component base="uniFEF0"/>
    <contour>
      <point x="600" y="750" type="move" name="rtl-above"/>
    </contour>
    <contour>
      <point x="725" y="-870" type="move" name="rtl-below"/>
    </contour>
  </outline>
</glyph>
<glyph name="uniFE9F" format="1">
  <advance width="1266"/>
  <unicode hex="FE9F"/>
  <outline>
    <component base="uniFEA3"/>
    <component base="arabic_dot" xOffset="525" yOffset="-300"/>
    <contour>
      <point x="600" y="1000" type="move" name="rtl-above"/>
    </contour>
    <contour>
      <point x="600" y="-350" type="move" name="rtl-below"/>
    </contour>
  </outline>
</glyph>
<glyph name="uniFEF3" format="1">
  <advance width="570"/>
  <unicode hex="FEF3"/>
  <outline>
    <component base="uniFBE8"/>
    <component base="arabic_2dots" xOffset="99" yOffset="-300"/>
    <contour>
      <point x="299" y="1000" type="move" name="rtl-above"/>
    </contour>
    <contour>
      <point x="299" y="-350" type="move" name="rtl-below"/>
    </contour>
  </outline>
</glyph>
<glyph name="Acute" format="1">
  <advance width="0"/>
  <outline>
    <contour>
      <point x="-457" y="1526" type="line"/>
      <point x="-272" y="1526" type="line"/>
      <point x="-500" y="1262" type="line"/>
      <point x="-653" y="1262" type="line"/>
    </contour>
    <contour>
      <point x="-512" y="1147" type="move" name="_above"/>
    </contour>
    <contour>
      <point x="-512" y="1147" type="move" name="_above-mark"/>
    </contour>
  </outline>
</glyph>
<glyph name="Dotaccent" format="1">
  <advance width="0"/>
  <outline>
    <contour>
      <point x="-614" y="1499" type="line"/>
      <point x="-410" y="1499" type="line"/>
      <point x="-410" y="1294" type="line"/>
      <point x="-614" y="1294" type="line"/>
    </contour>
    <contour>
      <point x="-512" y="1147" type="move" name="_above"/>
    </contour>
    <contour>
      <point x="-512" y="1147" type="move" name="_above-mark"/>
    </contour>
    <contour>
      <point x="-512" y="1499" type="move" name="above-mark"/>
    </contour>
  </outline>
</glyph>
<glyph name="uni066F.init" format="1">
  <advance width="979"/>
  <outline>
    <component base="uni06A1.init"/>
    <contour>
      <point x="500" y="1100" type="move" name="rtl-above"/>
    </contour>
    <contour>
      <point x="500" y="-150" type="move" name="rtl-below"/>
    </contour>
  </outline>
</glyph>
<glyph name="uni0681.medi" format="1">
  <advance width="1322"/>
  <outline>
    <component base="uniFEA4"/>
    <component base="uni0654" xOffset="88" yOffset="-300"/>
    <contour>
      <point x="600" y="1450" type="move" name="rtl-above"/>
    </contour>
    <contour>
      <point x="600" y="-100" type="move" name="rtl-below"/>
    </contour>
  </outline>
</glyph>
<glyph name="uni069E.init" format="1">
  <advance width="1739"/>
  <outline>
    <component base="uniFEBB"/>
    <component base="arabic_3dots" xOffset="400" yOffset="800"/>
    <contour>
      <point x="600" y="1250" type="move" name="rtl-above"/>
    </contour>
    <contour>
      <point x="550" y="-150" type="move" name="rtl-below"/>
    </contour>
  </outline>
</glyph>
<glyph name="uni06B2.init" format="1">
  <advance width="975"/>
  <outline>
    <component base="uniFB94"/>
    <component base="arabic_2dots" xOffset="200" yOffset="-300"/>
    <contour>
      <point x="250" y="1700" type="move" name="rtl-above"/>
    </contour>
    <contour>
      <point x="400" y="-350" type="move" name="rtl-below"/>
    </contour>
  </outline>
</glyph>
<glyph name="uni06B6.init" format="1">
  <advance width="624"/>
  <outline>
    <component base="uniFEDF"/>
    <component base="arabic_dot" xOffset="257" yOffset="1800"/>
    <contour>
      <point x="339" y="2100" type="move" name="rtl-above"/>
    </contour>
    <contour>
      <point x="339" y="-100" type="move" name="rtl-below"/>
    </contour>
  </outline>
</glyph>
<glyph name="uni06BD.fina" format="1">
  <advance width="1559"/>
  <outline>
    <component base="uniFB9F"/>
    <component base="arabic_3dots" xOffset="500" yOffset="550"/>
    <contour>
      <point x="700" y="1000" type="move" name="rtl-above"/>
    </contour>
    <contour>
      <point x="750" y="-600" type="move" name="rtl-below"/>
    </contour>
  </outline>
</glyph>
